<svg xmlns="http://www.w3.org/2000/svg" viewBox="0 0 32 32"><path d="M22.75 16L10.946 4.196q-.125-.125-.232-.286-.054-.143-.054-.339 0-.214.054-.357.018-.054.232-.268t.268-.232q.143-.054.357-.054.179 0 .339.054.125.036.286.232l12.429 12.429q.179.179.196.286.054.161.054.339t-.054.339q-.018.107-.196.286L12.071 29.196q-.071 0-.107.018-.036.071-.054.071t-.089.036h-.107q-.036.018-.143.018-.161 0-.196-.018h-.089q-.071 0-.071-.036-.018 0-.054-.071-.036-.018-.089-.018l-.143-.125q-.071-.071-.214-.286-.054-.143-.054-.357 0-.179.054-.339.018-.107.214-.268z" fill="#000000"/></svg>