<svg xmlns="http://www.w3.org/2000/svg" viewBox="0 0 32 32"><path d="M9.25 16L21.179 4.071q.036-.089.107-.161v-.089q.018-.018.018-.107.036-.036.036-.143 0-.196-.054-.357-.018-.089-.196-.304-.214-.179-.304-.196-.161-.054-.357-.054-.107 0-.143.036-.089 0-.107.018h-.089q-.071.071-.161.107L7.375 15.375q-.036.036-.089.161l-.107.125-.018.161q-.036.143-.036.179 0 .054.036.196l.018.143.107.125q.054.125.089.161l12.554 12.571q.125.054.161.089h.089q.036.036.107.036.018.018.143.018.161 0 .196-.018h.089q.071 0 .071-.036.089-.036.143-.089l.071-.071q.071-.036.071-.054l.107-.125q.036-.089.107-.161v-.036l.036-.054v-.071q.018-.036.018-.179 0-.161-.018-.196v-.089q0-.071-.036-.071-.071-.071-.107-.161l-.107-.107z" fill="#000000"/></svg>