<svg xmlns="http://www.w3.org/2000/svg" viewBox="0 0 32 32"><path d="M16 24.911h-.036q-.107 0-1.143-.071-.607-.054-1.161-.161-.196-.054-.438-.107t-.393-.089-.259-.071q-.446-.143-1.036-.411l.054.036-.714-.321-.679.339-2.375 1.071.589-1.75.339-1.036-.75-.786q-.589-.643-1.125-1.393-.429-.625-.839-1.571-.357-.875-.5-1.679-.196-1.018-.196-1.786 0-.911.232-1.946.179-.875.625-1.875.357-.75.964-1.643.625-.893 1.304-1.446.661-.643 1.571-1.179 1.018-.607 1.804-.946.875-.357 2-.554 1.143-.196 2.161-.196 1.036 0 2.161.196t2 .554q.786.339 1.804.946.964.571 1.571 1.143.696.661 1.304 1.482.661.893.982 1.643.411.946.625 1.857.214 1.018.214 1.964 0 .964-.214 1.929-.214.911-.625 1.857-.375.821-.982 1.661-.607.821-1.286 1.429-.696.643-1.589 1.179-1.018.607-1.804.946-.946.393-2 .589-1.143.196-2.161.196zm0-21.357q-1.071 0-2.464.232-1.25.232-2.375.679-1.036.375-2.125 1.071-.964.607-1.839 1.393-.768.696-1.5 1.732-.679.964-1.161 1.964-.482.982-.714 2.161-.25 1.196-.25 2.339 0 1.036.214 2.161.179.964.625 2.018.411.911 1.036 1.857.589.946 1.268 1.643-.071.357-.179.571-.143.339-.286.804l-.304.946-.321.929q-.036.143-.125.411-.071.232-.161.5-.018.036-.045.125t-.045.125q-.018.107-.089.286 0 .036-.027.098t-.045.116l-.25.714.821-.375q.214-.071.429-.179.321-.161.482-.214.089-.036.464-.25.446-.214.536-.232.607-.25 1-.464.482-.214 1.018-.429.125-.054.42-.196t.438-.214q.357-.179.464-.214.589.268 1.161.429.571.179 1.25.321.625.161 1.304.214.857.054 1.339.054H16q1.161 0 2.5-.25 1.214-.232 2.339-.643 1.161-.5 2.125-1.107.964-.571 1.857-1.393.714-.661 1.5-1.732.625-.875 1.143-1.929.482-1 .732-2.196.25-1.143.25-2.304 0-1.196-.25-2.339-.232-1.196-.732-2.161-.5-1.089-1.143-1.964-.786-1.071-1.5-1.732-.821-.768-1.857-1.393-1.089-.696-2.125-1.071-1.214-.446-2.339-.661-1.339-.25-2.5-.25z" fill="#de1c24"/></svg>