<svg xmlns="http://www.w3.org/2000/svg" viewBox="0 0 32 32"><path d="M15.125 17.875v-6.321q0-.839.161-1.625.179-.804.464-1.5.375-.839.714-1.375.393-.571 1-1.143.554-.589 1.196-.982.554-.393 1.339-.75.661-.286 1.536-.464.625-.143 1.589-.143h4.446q.179 0 .339.054.089.018.268.196t.196.268q.054.161.054.339 0 .196-.054.357-.054.143-.196.286-.161.196-.268.214-.161.054-.339.054h-4.446q-.768 0-1.286.089-.482.107-1.161.393-.429.161-1.018.589-.536.339-.946.75-.393.411-.75.911-.393.554-.589 1.054-.232.571-.375 1.196-.125.554-.125 1.25v6.304l3.089-3.089 1.25 1.286-5.214 5.214-5.214-5.214 1.25-1.286zM4.429 28.429q-.125 0-.339-.054-.107-.036-.268-.196t-.196-.268q-.054-.214-.054-.357V12.429H5.34v14.232h21.321V12.429h1.768v15.125q0 .196-.054.357-.036.107-.196.268-.214.179-.268.196-.214.054-.357.054z" fill="#000000"/></svg>