<svg xmlns="http://www.w3.org/2000/svg" viewBox="0 0 32 32"><path d="M18.25 8.964q.321-.804.929-1.518.554-.679 1.321-1.232.696-.5 1.661-.768.946-.286 1.839-.286.696 0 1.214.125.679.179 1.196.375.554.196 1.054.536.571.393.946.768.429.429.75.911.357.554.554 1.071.214.554.375 1.214.125.518.125 1.214 0 .732-.089 1.089-.161.732-.286 1.071-.196.482-.5 1-.125.232-.661.893l-3.804 4.286v6.946H14.213V21.32h-1.786v5.339H1.784v-16h4.643l6.911-5.321zm-4.911-1.375l-6.286 4.839h-3.5v12.446h7.107V19.57h5.339v5.304h7.089v-5.161l-3.786-4.286q-.464-.554-.643-.857-.339-.607-.482-1-.143-.375-.304-1.107-.089-.357-.089-1.089v-.411q0-.089.018-.125zM24 6.929q-.821 0-1.696.357-.839.339-1.429.929-.625.625-.964 1.464-.357.804-.357 1.696 0 .286.071.786.054.375.214.75.107.339.339.714l.482.661 3.339 3.75 3.339-3.786.464-.661q.179-.268.357-.679.036-.089.179-.75.089-.286.089-.786 0-.946-.339-1.696-.339-.839-.929-1.429-.625-.625-1.482-.964-.875-.357-1.679-.357zm0 6.232q-.375 0-.679-.125-.321-.143-.571-.411-.268-.25-.411-.571-.125-.304-.125-.679 0-.446.125-.696.125-.304.375-.554.268-.268.607-.411.321-.125.679-.125t.679.125q.321.161.571.411.286.286.411.589t.125.661q0 .375-.125.679-.143.357-.375.571-.268.268-.607.411-.25.125-.679.125z" fill="#000000"/></svg>