<svg xmlns="http://www.w3.org/2000/svg" viewBox="0 0 32 32"><path d="M10.25 10.661q-.75-.393-1.304-1.071-.5-.571-.821-1.304-.286-.804-.286-1.482 0-.607.286-1.429.143-.339.321-.571.161-.232.375-.429l.5-.375q.161-.107.589-.286.375-.143.911-.161.464-.018 1.018.036.607.143 1 .321.518.196 1 .5.446.25.732.518.339.25.589.625.125.179.277.429t.188.304q.214.357.375.714.214-.446.411-.714.179-.339.464-.732.214-.304.571-.625.5-.375.714-.518.643-.357 1-.5.607-.25 1-.286.464-.107 1.036-.071.536.018.893.161.482.196.607.286.357.214.5.339.196.179.393.464.161.214.286.571.304.661.304 1.429 0 .821-.304 1.482-.268.75-.804 1.339-.554.607-1.321 1.036h6.679v17.768H3.572V10.661h6.679zm2.196 16V12.429h1.768v14.232h3.571V12.429h1.786v14.232h7.089V12.429H5.339v14.232zm8.5-21.322q-.018 0-.482.036-.054.018-.205.045t-.223.045q-.107.054-.214.089-.054.018-.134.054t-.116.054q-.411.196-.5.25-.554.357-.911.768-.357.5-.589 1.161-.232.696-.375 1.196-.161.643-.196.964h.116l.152-.009.205-.018.241-.009q.554-.071.857-.089.464-.018.875-.161.714-.214.839-.286.518-.232 1.054-.643.5-.393.732-.857.286-.589.339-.964.018-.429-.161-.929 0-.018-.089-.232-.089-.089-.196-.143-.125-.089-.179-.125l-.214-.107h-.036q-.054 0-.125-.018l-.071-.036-.054-.018-.036-.018zM9.75 6.036q-.179.5-.161.929.036.339.321.964.268.482.75.857.536.411 1.054.643l.857.286q.429.143.857.161.589.054.893.089.143 0 .304.009t.241.018.134.009q-.036-.321-.196-.964-.143-.5-.375-1.196-.232-.661-.589-1.161-.357-.411-.911-.768-.411-.232-.607-.321-.018 0-.696-.214-.571-.071-.589-.071-.375.036-.571.125-.036 0-.116.045t-.134.063q-.018.018-.089.054-.071.071-.089.071-.125.054-.161.143l-.054.107z" fill="#000000"/></svg>