<svg xmlns="http://www.w3.org/2000/svg" viewBox="0 0 32 32"><path d="M23.786 24.875h4.643v-2.554h-.268q-.071-.036-.089-.036-.036 0-.071-.036h.036l-3.125-2.161-.071-.054v-.036l-.036-.036v-.125l-.054-.089v-.036q0-.054.036-.089v-.036q0-.036.018-.054 0-.018.036-.089.018-.036.018-.089l.018-.036q.018 0 .054-.107l.107-.089.054-.054.089-.071h.036q.036-.036.071-.036h.036q.018-.018.054-.018.071 0 .071-.036h.054q.036.036.071.036l2.875 1.339v-4.321l-2.875 1.357q-.018.018-.107.018h-.054q-.036-.018-.089-.018-.071 0-.107-.036-.018 0-.054-.036t-.071-.036q-.018-.018-.054-.089l-.107-.054q0-.054-.018-.071 0-.071-.036-.071 0-.018-.036-.089-.018-.018-.018-.089l-.036-.089q-.036-.071-.036-.125v-.036q0-.036.036-.071l.036-.089q0-.071.018-.089l.071-.071 3.125-2.179q.036 0 .036-.036h.054q.036-.036.071-.036h.214q0 .036.036.036V7.124H3.573v17.75h18.339q-.036 0-.036-.036v-.054q-.036-.036-.036-.071v-.036l.357-3.768q.018 0 .018-.036v-.071l.071-.054q0-.054.036-.089.018 0 .089-.071.054 0 .125-.036h.036q.018-.018.054-.018.036-.036.089-.036h.25q.054 0 .125.036 0 .018.036.018h.054q.036.036.107.036.018 0 .089.071l.054.054v.089l.071.107.339 3.768v.107q-.018.018-.018.054t-.036.071v-.036zM2.661 26.661q-.036 0-.321-.071-.107-.036-.268-.179-.214-.179-.232-.286-.054-.161-.054-.339V6.215q0-.179.054-.339.018-.107.232-.286.161-.143.268-.179.286-.071.321-.071H29.34q.089 0 .339.071.143.054.286.179.161.196.196.286.054.161.054.339v19.571q0 .179-.054.339-.036.089-.196.286-.143.125-.286.179-.25.071-.339.071zm19.464-15.572l.179-.054q.143-.071.161-.071h.036l.054-.036h.071q.036-.018.179-.018h.071q.107 0 .179.018h.107q.071.036.089.036t.161.071h.018q.018.018.071.018l.036.036q.018 0 .063.036t.08.054l.107.125q.018.018.018.071v.054q.036.071.036.161l-.339 3.786q0 .036-.036.071t-.036.089l-.054.054q-.071.071-.089.071l-.107.054-.089.036q-.071.036-.125.036h-.25q-.054 0-.089-.036-.018 0-.089-.036l-.125-.054q-.071-.071-.089-.071l-.071-.054-.071-.089v-.071l-.339-3.786v-.143q.036-.071.089-.125.018-.036.107-.125zM17.089 14q.054 0 .089-.036h.071q.018-.018.089-.018h.125q.071 0 .071.018h.054q0 .036.071.036l3.125 2.196.054.054q.036.036.036.071.018.036.018.089.018.018.018.036v.214q0 .018-.036.089 0 .018-.036.089l-.054.107q0 .018-.018.036-.018.054-.018.089-.018.018-.089.054-.036.054-.089.089-.071.036-.107.036v.036q-.036.036-.054.036-.107 0-.125.018h-.107q-.036 0-.054-.018l-3.446-1.607q-.089-.018-.125-.054l-.054-.125q-.054-.054-.071-.125-.018-.036-.018-.196v-.054q0-.161.018-.196 0-.018.036-.054v-.089q0-.089.071-.161v-.071q.018-.018.018-.054.036 0 .036-.036.036-.036.089-.161l.25-.25q.125-.054.161-.089zm3.036 4.946l.054-.018q0-.018.036-.018h.036q.054 0 .071.018h.054l.036.036q.036.036.054.036.036.036.107.071l.089.054.054.089q0 .071.071.107l.054.125q.036.071.036.089.036.036.036.089v.214q0 .054-.036.125 0 .036-.036.071l-.054.054-3.125 2.161q0 .054-.125.071-.018.018-.125.018h-.089q-.018-.018-.071-.018l-.161-.071q-.036-.036-.161-.089l-.125-.125q-.018 0-.054-.071l-.071-.054q0-.018-.036-.071t-.054-.089l-.054-.161q-.071-.071-.071-.125v-.089q-.036-.036-.036-.054-.018-.036-.018-.196v-.089q0-.107.018-.125.018-.107.071-.161.018-.036.071-.089l.107-.125z" fill="#000000"/></svg>