<svg xmlns="http://www.w3.org/2000/svg" viewBox="0 0 32 32"><path d="M10.571 6.286q-.232 0-.411.036h-.196q-.143 0-.179.018-.125 0-.375.071-.036 0-.17.036t-.241.054q-.821.214-1.554.714t-1.5 1.321q-.768.768-1.125 1.964-.375 1.25-.375 2.714 0 .768.125 1.446.161.679.393 1.25.196.482.607 1.161.268.411.75 1.054.393.482.875.964.536.536.964.875.286.196 1 .821.393.321.929.714l.482.375q.304.232.911.705t.929.705q1.196.839 1.714 1.161.268.214.714.464.464.286.571.375.536.375.589.375h.036q.071 0 .304-.161.357-.214.571-.375.054-.036.321-.205t.429-.259q.464-.321.839-.571.125-.107.464-.304.286-.196.464-.339.607-.375.982-.661.125-.089.893-.661.625-.446.786-.554.143-.107.304-.232t.357-.277.304-.241l.982-.821q.536-.393.929-.839l.839-.946q.5-.625.732-1.054.304-.643.518-1.196.232-.625.375-1.268.125-.607.125-1.536-.018-1.179-.304-2.375-.232-1.036-.839-2-.536-.857-1.375-1.464-.893-.625-1.821-.875-1.071-.232-1.75-.232-.696.018-1.714.321-.768.232-1.661.786-.804.554-1.411 1.25l-.679.768-.661-.768q-.411-.482-.964-.911-.607-.5-1.125-.732-.554-.286-1.321-.464-.571-.143-1.357-.179zm5.34 21.285l-.625-.286-.714-.446-.661-.429-.75-.464q-.696-.446-1.821-1.25-1.464-1.107-1.875-1.411l-.429-.339q-.036-.018-.089-.063l-.161-.134-.196-.161-.286-.223-.268-.205q-.571-.411-1.089-.875-.661-.571-1.036-1-.375-.375-1-1.125-.393-.464-.875-1.25-.339-.5-.75-1.411-.286-.679-.464-1.554-.161-.804-.161-1.75.018-.893.161-1.786.143-.75.393-1.589.196-.518.607-1.357.286-.536.768-1.125.321-.393.875-.893.554-.446 1-.75.554-.304 1.071-.536.446-.232 1.036-.411l.464-.054q.268-.107.5-.107.161-.036.5-.054.214-.036.5-.036.786 0 1.554.161t1.482.429q.393.161 1.339.732.679.482 1.125.893.768-.696 1.714-1.25.964-.536 1.911-.75 1.018-.268 2.036-.268t2 .268q.5.161 1.25.482.625.268 1.125.643.536.375.964.857.536.643.786 1 .482.786.643 1.143.321.679.482 1.321.214.768.268 1.429.125.696.125 1.536 0 1.018-.143 1.821-.143.929-.446 1.625-.196.571-.661 1.393-.411.732-.839 1.286-.607.732-.964 1.089-.607.625-1.036.982-.286.268-1.054.875l-.25.188-.366.286-.384.295q-.482.357-.696.5-.321.268-.911.661-.143.125-.5.339-.393.304-.5.357-.071.071-.429.304-.482.339-.589.411-.196.143-.429.295t-.366.232-.188.134q-.25.125-.893.518-.161.107-.33.214t-.25.161-.116.071q-.196.143-.429.179z" fill="#ffffff"/></svg>