<svg xmlns="http://www.w3.org/2000/svg" viewBox="0 0 32 32"><path d="M16 30.214q-1.268 0-2.839-.286-1.357-.268-2.696-.839-1.268-.554-2.393-1.304-1.286-.893-2.107-1.714-.857-.857-1.75-2.143-.75-1.125-1.304-2.393-.571-1.339-.839-2.696-.286-1.571-.286-2.839t.286-2.839q.268-1.357.839-2.696.554-1.268 1.304-2.393.821-1.214 1.714-2.107.929-.929 2.143-1.75 1.125-.75 2.393-1.304 1.339-.571 2.696-.839 1.571-.286 2.839-.286t2.839.286q1.357.268 2.696.839 1.268.554 2.393 1.304 1.143.768 2.107 1.732.982.982 1.75 2.125.75 1.125 1.304 2.393.571 1.339.839 2.696.286 1.571.286 2.839t-.286 2.839q-.268 1.357-.839 2.696-.554 1.268-1.304 2.393-.821 1.214-1.714 2.107-.929.911-2.143 1.75-1.125.75-2.393 1.304-1.339.571-2.696.839-1.571.286-2.839.286zm0-26.643q-1.268 0-2.5.232-1.161.232-2.339.732-1.179.554-2.089 1.143-.964.589-1.857 1.536-.964.911-1.536 1.839-.554.857-1.143 2.107-.464 1.036-.714 2.375-.25 1.304-.25 2.464t.25 2.5q.25 1.286.714 2.339.554 1.179 1.143 2.089.607 1 1.5 1.875.786.768 1.875 1.5.964.643 2.107 1.161 1.036.464 2.375.714 1.304.25 2.464.25t2.5-.25q1.286-.25 2.339-.714 1.089-.482 2.089-1.161 1.107-.732 1.875-1.5t1.5-1.875q.679-1 1.161-2.089.464-1.054.714-2.339.25-1.214.25-2.5 0-1.268-.25-2.464-.25-1.339-.714-2.375-.518-1.143-1.161-2.107-.696-1.036-1.5-1.839-.929-.929-1.875-1.536-.911-.589-2.089-1.143-1.054-.464-2.339-.714-1.214-.25-2.5-.25zm.786 19.393q0 .071-.071.357-.018.143-.179.268-.143.179-.286.196-.161.054-.339.054-.196 0-.357-.054-.089-.018-.268-.196-.214-.179-.232-.268-.054-.214-.054-.357 0-.125.054-.339.054-.125.196-.286.161-.125.304-.179.286-.071.357-.071.054 0 .339.071.161.054.286.179t.179.286q.071.286.071.339zm2.339-10.178v-.036q0-.643-.214-1.214-.232-.571-.732-1.071-.536-.536-1.018-.75-.589-.214-1.25-.214-.518 0-1 .161-.536.179-.911.464-.482.339-.714.714-.286.339-.464.911-.018.054-.143.214-.036.036-.08.089t-.063.08-.036.045q-.054.054-.125.071t-.125.071q-.071.018-.25.018t-.339-.054q-.107-.036-.321-.196-.125-.161-.179-.304-.071-.286-.071-.339v-.125q.036-.036.036-.071v-.071q.232-.714.679-1.357.411-.536 1.107-1.107.589-.464 1.411-.714.804-.25 1.589-.25 1 0 1.893.339.893.375 1.625 1.125.732.732 1.107 1.607.375.911.375 1.929 0 .911-.321 1.714-.268.75-.839 1.5-.554.679-1.321 1.125-.732.429-1.625.589h-.018v2.196h-1.786v-3.911h.911q.661 0 1.214-.25.607-.25 1.036-.679.518-.482.75-1.036.214-.536.214-1.214z" fill="#000000"/></svg>