<svg xmlns="http://www.w3.org/2000/svg" viewBox="0 0 32 32"><path d="M15.125 18.161q-.375-.054-.839-.196-.554-.179-.75-.304-.304-.161-.696-.464-.071-.054-.277-.223t-.348-.277q-.018-.089-.054-.125-.107-.143-.107-.161-.036-.036-.089-.161v-.179q0-.071.071-.357.036-.143.179-.268.143-.143.321-.196.214-.054.339-.054h.179q.107.018.161.054l.125.071q.036.036.071.063t.054.045l.036.018q.179.179.5.393.25.196.589.357.107.036.223.071t.259.08.214.063q.321.054.714.054.339 0 .714-.054.286-.036.661-.214.411-.161.589-.321.321-.214.536-.429l.036-.018q.018-.018.054-.045t.071-.063l.125-.071q.071-.036.143-.054h.196q.125 0 .339.054.143.036.286.196.179.143.214.268.071.286.071.357v.179q0 .036-.071.161-.071.071-.089.161-.054.054-.089.125-.143.107-.348.277t-.277.223q-.321.232-.696.429-.321.196-.75.339-.482.143-.804.196h-.036v6.75h2.679V20.59l.482-.25q1-.518 1.964-1.375.929-.804 1.536-1.839.643-1 1.018-2.214.321-1.161.321-2.446v-.018q0-.804-.196-1.786-.161-.893-.5-1.661-.411-.964-.804-1.536-.536-.75-1.089-1.304-.536-.536-1.321-1.089-.679-.482-1.5-.821-.893-.393-1.679-.536T16 3.572t-1.786.143-1.679.536q-.804.357-1.482.821-.786.536-1.339 1.089-.518.536-1.054 1.304-.482.607-.857 1.536-.339.768-.5 1.661-.179.946-.179 1.786v.018q0 1.357.304 2.464.339 1.179 1 2.196.661 1.036 1.536 1.839.893.839 1.946 1.375h.054l.464.25v4.321h2.696v-6.75zm-2.696 12.053h7.125v-1.768h-7.125zm8.91-3.553H10.66v-4.964q-.768-.482-1.125-.75-.714-.589-1.071-.946-.321-.321-.911-1.036-.339-.429-.75-1.125-.375-.554-.625-1.25-.286-.625-.464-1.304-.143-.482-.286-1.339-.089-.5-.089-1.482v-.018q0-1.125.214-2.125t.625-2.036q.339-.804.982-1.821.554-.821 1.304-1.554.732-.732 1.571-1.286 1.036-.643 1.804-1 1.018-.411 2-.625Q14.91 1.786 16 1.786q1.179 0 2.161.214 1.018.214 2 .625.768.357 1.804 1 .839.554 1.571 1.286.75.732 1.304 1.554.554.857.964 1.821.411 1.036.625 2.036.232 1.196.232 2.125v.018q0 .75-.107 1.482-.196 1.107-.268 1.339-.161.571-.482 1.304-.268.696-.589 1.25-.339.571-.786 1.125-.679.821-.893 1.036-.554.554-1.036.911-.536.411-1.125.75l-.036.036v4.964z" fill="#000000"/></svg>