<svg xmlns="http://www.w3.org/2000/svg" viewBox="0 0 32 32"><path d="M5.339 17.786q-.375 0-.679-.125-.357-.143-.571-.375-.286-.25-.411-.589-.107-.196-.107-.696 0-.482.107-.679.143-.304.393-.571.286-.286.589-.411t.679-.125H26.66q.375 0 .679.125.357.143.571.375.268.25.411.607.107.196.107.679t-.107.679q-.143.304-.393.571-.286.286-.589.411t-.679.125H5.339zm0 10.643q-.446 0-.679-.125-.339-.143-.571-.375-.286-.286-.411-.589-.107-.196-.107-.679 0-.464.107-.661.125-.304.393-.571.232-.232.589-.393.304-.125.679-.125H26.66q.375 0 .679.125.357.161.571.375.25.25.393.589.125.232.125.661 0 .446-.125.679-.143.339-.375.571-.286.286-.589.411-.196.107-.679.107H5.339zm0-21.304q-.339 0-.679-.161-.339-.143-.571-.375-.268-.268-.411-.554-.107-.196-.107-.696 0-.482.107-.679.125-.304.393-.571.25-.25.589-.393.232-.125.679-.125H26.66q.446 0 .679.125.357.143.571.393.25.214.393.571.125.232.125.679 0 .464-.125.696-.125.304-.375.554-.321.232-.589.375-.339.161-.679.161H5.339z" fill="#ffffff"/></svg>