<svg xmlns="http://www.w3.org/2000/svg" viewBox="0 0 32 32"><path d="M3.661 9.339q.018 0 .018-.018v-.036l.036-.036 3.536-5.321.161-.143q.054-.107.179-.125.214-.089.232-.089h16.393l.179.089h.036q.107.036.161.125l.161.161 3.536 5.304q.036 0 .036.036v.054h.018l.071.107v.125q.018 0 .018.089v17.911q0 .179-.054.339-.018.107-.196.286-.161.161-.268.179-.214.071-.339.071H4.432q-.125 0-.339-.071-.107-.018-.268-.179-.179-.179-.196-.286-.054-.161-.054-.339v-18l.018-.036v-.071q0-.018.036-.054zm11.464-4H8.464L6.089 8.875h9.036zm1.75 0v3.536h9.036l-2.375-3.536zM5.339 26.661H26.66v-16H5.339zm1.982-1.625V21.5h5.304v3.536z" fill="#000000"/></svg>