<svg xmlns="http://www.w3.org/2000/svg" viewBox="0 0 32 32"><path d="M16 30.214l-.696-.804q-.054-.054-.268-.339l-.321-.357q-.232-.321-.464-.589-.5-.589-1.071-1.286 0-.018-.17-.223t-.348-.42q-.125-.143-.366-.438t-.33-.42q-.25-.339-1.286-1.589-1.018-1.339-1.268-1.661l-.25-.321q-.25-.321-.411-.554-.446-.607-.464-.625-.679-.839-.857-1.179-.482-.75-.929-1.714-.464-.911-.661-1.625-.25-.875-.375-1.75-.125-.75-.125-1.875 0-1.107.214-2.125.214-.982.625-2 .357-.893.982-1.857.536-.804 1.304-1.554.732-.732 1.571-1.286 1.036-.643 1.804-1 1.018-.411 2-.625 1.071-.214 2.161-.214 1.268 0 2.161.179.982.196 2 .661.875.375 1.804.964.804.554 1.571 1.321.75.732 1.304 1.554.554.839.964 1.857t.625 2q.232 1.214.232 2.125 0 1.071-.125 1.875-.143.911-.375 1.714-.196.732-.661 1.661-.429.857-.929 1.714-.304.482-.857 1.179-.018.018-.464.625-.125.161-.25.33t-.241.321-.17.223q-.25.268-.661.821-.268.357-.625.804-.054.071-1.268 1.625-.357.429-.571.696-.196.25-.661.768-1.018 1.286-1.054 1.321-.5.589-.75.911-.161.214-.321.375zm0-26.643q-1 0-1.786.143t-1.679.536q-.804.357-1.482.821-.786.536-1.339 1.089-.518.536-1.054 1.304-.5.714-.857 1.536-.339.714-.5 1.696-.179.893-.179 1.75 0 .982.089 1.625.107.714.321 1.5.214.696.554 1.393.393.875.839 1.482.125.25.625.893.232.339.857 1.125.054.054.116.143t.161.232.188.25l.188.232.188.232q.071.089.125.161.036.036.5.661t.5.661q.321.411.536.661.107.143.277.348t.223.277q.036.071.429.518.304.393.571.696l.304.375.321.375q.25.286.268.304.036.054.089.116t.134.161.134.17.339.429q.286-.357.339-.429.071-.089.188-.241t.152-.205l.911-1.054q.268-.304.571-.696.393-.446.429-.518.054-.071.134-.161t.196-.241.205-.259q.375-.5.464-.625.018-.036.125-.17t.384-.482.527-.67l.125-.161q.071-.09.188-.232t.188-.232q.089-.107.188-.25t.161-.232.116-.143q.304-.375.839-1.125.464-.625.625-.893.482-.679.857-1.482.286-.536.518-1.393.268-.929.357-1.5.089-.643.089-1.625 0-.768-.196-1.75-.179-1-.482-1.696-.375-.893-.821-1.536-.482-.661-1.089-1.268-.571-.589-1.321-1.107-.589-.429-1.5-.839-.893-.393-1.679-.536t-1.786-.143zm2.661 8.875q0 .482-.196 1.018-.179.464-.589.875-.446.446-.875.607-.464.179-1 .179t-1-.179q-.429-.161-.875-.607-.411-.411-.589-.875-.196-.536-.196-1.018 0-.464.196-1 .179-.464.589-.875.446-.429.875-.607.464-.179 1-.179t1 .179q.429.179.875.607.411.411.589.875.196.536.196 1z" fill="#000000"/></svg>