<svg xmlns="http://www.w3.org/2000/svg" viewBox="0 0 32 32"><path d="M17.25 16L27.339 5.911q.036-.071.071-.071.071-.071.089-.143.054-.054.071-.161V5.34q0-.125-.071-.339-.018-.161-.179-.286-.179-.179-.321-.214-.214-.071-.339-.071h-.196l-.089.071-.036.036h-.018q-.089.018-.125.054t-.071.063-.054.045l-.036.018-10.036 10.036L6.16 4.878q-.107-.054-.125-.054-.054-.107-.161-.107-.018-.036-.161-.054-.071-.036-.179-.036-.143 0-.357.054-.089.018-.268.232-.214.214-.232.268-.054.214-.054.357 0 .107.036.179.018.143.054.161 0 .107.107.161 0 .018.054.125l9.875 9.839L4.713 26.039l-.018.036q-.018.018-.045.054t-.063.071l-.054.125q0 .018-.036.089l-.071.054v.196q0 .125.071.339.054.161.214.321.125.125.286.179.286.071.339.071h.196l.143-.071q.036-.018.089-.054t.071-.036q0-.036.071-.071l10.089-10.089 10.036 10.036.036.018q.018.018.054.045t.071.063q.054.054.125.089l.143.071h.375q.036-.036.107-.036.071-.036.089-.036.036-.036.161-.089.054-.054.089-.125.071-.036.125-.089.054-.125.089-.161 0-.018.036-.089 0-.071.036-.107v-.375l-.071-.143q-.054-.054-.089-.125-.036-.036-.063-.071t-.045-.054l-.018-.036z" fill="#000000"/></svg>