<svg xmlns="http://www.w3.org/2000/svg" viewBox="0 0 32 32"><path d="M14.214 21.339q-.643 0-1.393-.161-.786-.143-1.357-.393-.589-.214-1.214-.696-.696-.482-1.054-.839-.429-.429-.875-1.071-.464-.75-.661-1.179-.232-.714-.375-1.339-.161-.75-.161-1.446 0-.679.161-1.429.143-.643.375-1.321.214-.536.661-1.214t.875-1.071q.393-.411 1.054-.857.679-.446 1.214-.661.696-.232 1.357-.375.75-.161 1.393-.161.696 0 1.446.161.625.143 1.339.375.5.232 1.196.661.643.446 1.054.857.446.446.875 1.071.446.679.661 1.214.25.589.393 1.357.161.75.161 1.393 0 .696-.161 1.446-.143.732-.393 1.339-.179.464-.661 1.179-.429.625-.875 1.071t-1.071.875q-.714.482-1.179.661-.607.25-1.339.393-.75.161-1.446.161zm13.732 4.072l-5.036-5q.411-.536.804-1.357.411-.804.625-1.518.286-.839.411-1.607.125-.732.125-1.714 0-1.268-.179-2.161-.232-1.036-.625-2-.357-.804-1-1.804-.518-.804-1.321-1.571-.75-.75-1.554-1.304-.911-.589-1.821-.964-1-.411-2.036-.625-1.107-.232-2.125-.232-1.125 0-2.143.232-1.018.179-2 .625-.964.411-1.821.964-.786.536-1.554 1.286-.786.821-1.321 1.589-.589.893-.964 1.804-.446 1.036-.625 2-.214 1.018-.214 2.161 0 1.179.214 2.125.179 1.036.625 2.036.357.857.964 1.804.554.839 1.286 1.571.768.768 1.589 1.304.982.643 1.821 1 .964.393 2 .625.946.196 2.143.196.982 0 1.714-.125.786-.143 1.607-.411.75-.232 1.536-.625.768-.393 1.375-.839l-.036.036 5 5.018q.018 0 .071.045t.089.063q.071.036.125.089.161.125.268.161.143.089.357.125.089.018.339.018.286 0 .375-.018.161-.018.304-.125.232-.054.357-.161l.089-.089q.036-.018.089-.063t.071-.045q.054-.054.089-.125t.089-.125q.107-.143.161-.339.107-.143.125-.304.036-.179.036-.375 0-.179-.036-.357-.036-.196-.125-.339-.054-.143-.161-.286-.054-.054-.089-.125-.018-.036-.054-.08t-.036-.063z" fill="#000000"/></svg>