<svg xmlns="http://www.w3.org/2000/svg" viewBox="0 0 32 32"><path d="M22.661 15.125q-1.179 0-2.232-.446-1.018-.429-1.839-1.25t-1.268-1.875-.446-2.214.446-2.214q.429-1.071 1.232-1.875.857-.857 1.875-1.286 1.018-.411 2.232-.411 1.232 0 2.214.411 1.071.482 1.875 1.286t1.286 1.875q.393.946.393 2.214t-.393 2.232q-.429.982-1.286 1.839-.786.821-1.875 1.268-1.054.446-2.214.446zm0-9.786q-.786 0-1.536.321-.714.268-1.286.839-.589.589-.911 1.304-.268.732-.268 1.536 0 .839.268 1.536.25.643.893 1.286t1.304.893q.75.286 1.536.286.75 0 1.518-.286.661-.25 1.286-.875.625-.661.875-1.304.321-.75.321-1.536t-.321-1.536q-.25-.679-.839-1.268-.607-.607-1.321-.875-.75-.321-1.518-.321zM9.339 15.125q-1.161 0-2.214-.446-1.036-.411-1.875-1.25-.857-.857-1.286-1.875-.393-.964-.393-2.214 0-1.268.393-2.214.482-1.071 1.286-1.875t1.875-1.286q.982-.411 2.214-.411 1.214 0 2.232.411.982.429 1.839 1.286.857.804 1.286 1.875.429 1.018.429 2.214t-.429 2.214q-.411 1.018-1.25 1.857-.857.857-1.875 1.268-1.054.446-2.232.446zm0-9.786q-.768 0-1.518.321-.714.268-1.286.839-.625.625-.875 1.304-.321.75-.321 1.536t.321 1.536q.268.714.839 1.286.554.554 1.321.893.768.286 1.518.286.786 0 1.536-.286.661-.25 1.286-.875.661-.661.911-1.304.268-.696.268-1.536 0-.804-.268-1.536-.232-.607-.893-1.268-.661-.625-1.304-.875-.75-.321-1.536-.321zm13.322 23.09q-1.214 0-2.214-.393-1-.429-1.857-1.286-.821-.768-1.268-1.875-.446-1.054-.446-2.214 0-1.179.446-2.232.429-1.018 1.25-1.839.875-.875 1.857-1.286 1.018-.429 2.232-.429 1.196 0 2.214.429 1.036.411 1.875 1.25.857.875 1.286 1.875.393.964.393 2.232t-.393 2.214q-.482 1.071-1.286 1.875t-1.875 1.286q-1 .393-2.214.393zm0-9.768q-.839 0-1.536.268-.661.25-1.286.875-.661.661-.911 1.321-.268.696-.268 1.536 0 .804.268 1.518.25.643.893 1.286.661.625 1.304.875.75.321 1.536.321.768 0 1.518-.321.714-.268 1.286-.839.607-.607.875-1.321.321-.75.321-1.518 0-.786-.321-1.536-.268-.714-.839-1.286-.625-.661-1.321-.911-.714-.268-1.518-.268zM9.339 28.429q-1.214 0-2.214-.393-1.071-.482-1.875-1.286t-1.286-1.875q-.411-.982-.411-2.214 0-1.214.411-2.232.429-.982 1.286-1.839.804-.857 1.875-1.286 1.018-.429 2.214-.429t2.214.429q1.018.411 1.857 1.25.857.857 1.268 1.875.446 1.054.446 2.232 0 1.161-.446 2.214-.429 1.071-1.232 1.875-.875.857-1.875 1.286-1 .393-2.232.393zm0-9.768q-.804 0-1.536.268-.643.25-1.268.875-.607.643-.875 1.321-.321.75-.321 1.536 0 .768.321 1.518.268.714.839 1.286.625.625 1.304.875.75.321 1.536.321t1.536-.321q.714-.268 1.286-.839.554-.554.893-1.321.286-.768.286-1.518 0-.786-.286-1.536-.25-.661-.875-1.286-.661-.661-1.304-.911-.696-.268-1.536-.268z" fill="#000000"/></svg>