<svg xmlns="http://www.w3.org/2000/svg" viewBox="0 0 32 32"><path d="M17.911 15.125l-2.75-2.75q-.071-.071-.107-.161-.089-.089-.089-.125 0-.018-.036-.089v-.089q-.018-.036-.018-.161 0-.143.018-.179l.036-.161q0-.089.089-.196.018-.036.107-.125l.143-.054q0-.036.071-.071.018-.018.054-.018l.107-.054.089-.054h.339l.071.036.071.018.018.018.196.054q.054.089.107.125L21.338 16l-5.018 5.071-.161.054q-.036.036-.089.036-.036.018-.107.018h-.179q-.196 0-.357-.054-.089-.018-.268-.196-.179-.25-.196-.304-.054-.161-.054-.304 0-.161.018-.196v-.089q0-.071.036-.071l.107-.143q.054-.107.089-.143l2.768-2.804H3.57v-1.75h14.339zm-7.25 13.321V26.66h16V5.339h-16V3.571h16.893q.143 0 .357.054.054.018.268.196.179.214.196.268.054.161.054.357v23.125q0 .179-.054.339-.018.107-.196.286-.161.161-.268.179-.214.071-.357.071z" fill="#000000"/></svg>