<svg xmlns="http://www.w3.org/2000/svg" viewBox="0 0 32 32"><path d="M10.464 15.125q-.536-.5-1.036-1.179-.375-.518-.75-1.411-.286-.643-.482-1.571T8 9.339q0-.839.161-1.625.179-.839.464-1.5.286-.625.75-1.375.429-.589.964-1.161.375-.357 1.196-1 .518-.339 1.339-.714.679-.286 1.536-.464.768-.161 1.589-.161.857 0 1.625.161.804.179 1.5.464.821.375 1.339.714.643.429 1.196.982.589.589 1 1.179.339.518.714 1.375.286.679.464 1.536.161.786.161 1.589 0 .786-.179 1.625-.161.839-.482 1.571-.375.839-.768 1.393-.554.732-1.036 1.196.679.214 1.375.554.589.286 1.214.75.589.411 1.089.911.625.625.982 1.107.357.518.75 1.25.375.643.589 1.339.268.768.375 1.429.089.625.089 1.536v6.661h-24V24q0-.893.125-1.536.196-.911.339-1.429.161-.464.607-1.339.464-.804.768-1.232.304-.446.946-1.089.554-.571 1.089-.946.589-.411 1.25-.75.679-.357 1.339-.554zM6.661 28H25.34v-4q0-.75-.125-1.304-.179-.768-.393-1.286-.179-.446-.625-1.125-.357-.571-.821-1-.393-.464-.964-.839-.643-.411-1.161-.607-.571-.25-1.25-.375-.554-.125-1.339-.125h-5.321q-.75 0-1.304.125-.696.143-1.286.375-.464.179-1.125.607-.482.321-1 .839-.482.482-.804.964-.429.696-.643 1.161-.179.5-.357 1.25-.161.696-.161 1.339v4zM16 4q-1.089 0-2.071.411-.929.375-1.714 1.161-.732.732-1.143 1.714-.411.929-.411 2.054 0 1.107.411 2.036.411.982 1.143 1.714.804.804 1.714 1.196.964.375 2.071.375 1.161 0 2.071-.375.911-.411 1.714-1.196.732-.732 1.143-1.714.411-.929.411-2.036 0-1.125-.411-2.054-.411-.982-1.143-1.714-.786-.786-1.714-1.161Q17.142 4 16 4z" fill="#ffffff"/></svg>