<svg xmlns="http://www.w3.org/2000/svg" viewBox="0 0 32 32"><path d="M22.179 9.339l-1.714 6.571q-.054.268-.036.429.018.268.107.482.196.304.268.393.089.089.375.25l.107.071q.018 0 .054.036h.196q.018.018.161.018.232 0 .268-.018l.286-.125q.161-.107.25-.196t.196-.214l3.625-5.696.054-.143q.036 0 .036-.071.036-.036.036-.054l.054-.071q.196-.482.214-.929.036-.429-.143-.946-.161-.446-.5-.804-.25-.339-.732-.571-.107-.018-.25-.054-.143-.071-.214-.071l-.089-.036q-.089 0-.125-.018h-.464q-.161 0-.232.018-.018 0-.089.036t-.089.036H23.7q-.036 0-.071.036l-.429.214q-.286.214-.357.286-.018.018-.268.375-.089.107-.25.393l-.036.107q-.036.036-.036.089l-.071.054v.125zm-.5 10.036q-.161 0-.304-.036-.196-.018-.321-.054-.179 0-.339-.089-.018 0-.161-.036l-.143-.071q-.5-.232-.857-.625-.464-.518-.625-.875-.232-.536-.25-1.054-.054-.589.071-1.071l1.714-6.554q0-.018.071-.196.018-.071.018-.125 0-.107.036-.143t.036-.071l.036-.036q.018-.018.018-.054.179-.464.375-.714.232-.321.571-.661.321-.321.625-.5.411-.232.714-.375H23l.304-.089q.214-.107.375-.107.018-.018.161-.018h.196q.179-.036.375-.036.25 0 .464.036.268.018.429.054.125.018.411.089.321.161.411.196h-.036q.839.393 1.321.929.536.571.804 1.411.321.75.286 1.589-.036.821-.375 1.625l-.071.196q-.089.089-.089.125-.018.018-.054.089l-.036.071-.071.125-3.625 5.643q-.196.321-.464.571t-.589.429q-.321.214-.696.321-.214.089-.75.089zM5.5 9.696l9.304 15.143q.125.196.375.321.232.125.536.125.375 0 .661-.089.286-.054.661-.25l.643-.482q.25-.25.375-.554.179-.25.196-.571.036-.286-.071-.464L11.43 6.464q-.054-.196-.179-.339-.125-.161-.286-.286-.107-.107-.339-.25-.143-.089-.375-.125-.214-.107-.661-.143-.196 0-.714.054-.429.054-.786.196-.411.161-.679.304-.607.357-1.071.821-.482.482-.714 1-.321.625-.321 1.054-.018.446.196.946zm10.339 17.375q-.375 0-.786-.107-.286-.054-.643-.25-.393-.179-.607-.393-.357-.304-.5-.536L3.928 10.499q-.393-.768-.393-1.589 0-.857.393-1.75.357-.857 1.036-1.625.589-.643 1.571-1.214.786-.393 1.018-.482.143-.036.33-.08t.411-.089.366-.08q.446-.054 1.089-.018.589.036 1.036.179.339.107.679.286.196.107.589.411.304.25.536.5.179.232.375.625l.125.25 6.75 16.393q.214.607.196 1.125 0 .589-.321 1.232-.268.571-.75 1.089-.375.429-1.054.839-.071.054-.5.214-.411.179-.536.196-.196.089-.536.125-.429.036-.5.036z" fill="#000000"/></svg>