<svg xmlns="http://www.w3.org/2000/svg" viewBox="0 0 32 32"><path d="M29.339 5.339q.036 0 .321.071.107.036.268.179.214.179.232.286.054.161.054.339v19.571q0 .179-.054.339-.036.089-.196.286-.161.125-.304.179-.286.071-.321.071H2.66q-.036 0-.321-.071-.107-.036-.268-.179-.214-.179-.232-.286-.054-.161-.054-.339V6.214q0-.179.054-.339.036-.089.196-.286.161-.125.304-.179.286-.071.321-.071zM3.571 10.661h24.857V7.125H3.571zm0 14.214h24.857V14.214H3.571zm6.215-3.804q-.036-.054 0-.161v-.161l.054-.196.071-.089.018-.089q.071-.071.107-.161l.125-.125q.107-.036.143-.125.018 0 .125-.054.036 0 .071-.036t.054-.036q.071-.036.161-.036h.161q.018 0 .054.036.036 0 .071.036l3.071 2.179.018.071q.036.036.036.054v.143q.036.036.036.089t-.036.089l-.054.089v.071q-.036.036-.036.054l-.036.071-.036.036-.054.125q-.071.036-.089.054-.036.036-.107.036l-.179.089q-.054 0-.089-.036h-.071l-3.339-1.554-.161-.161q-.018-.018-.054-.161-.036-.036-.036-.143zm5.25-3.535q0-.107.018-.125v-.036q0-.036.036-.071l.089-.125.125-.089.161-.054.161-.107q.054 0 .089-.018h.089q.143-.036.196-.036.107 0 .179.036.125 0 .161.018l.107.054.089.054q.071.036.143.054l.125.089.018.018q0 .018.018.045t.036.063l.054.107q.036.036.036.125l-.339 3.679q0 .071-.036.071l-.036.089q-.018.054-.089.054-.036.036-.054.036-.071.071-.107.071-.036.018-.089.018-.036.036-.089.036h-.25q-.089 0-.125-.036-.054 0-.089-.018-.036 0-.107-.071-.018 0-.054-.036l-.071-.054-.018-.089q-.036 0-.036-.071zm2.839 4.768v-.089q0-.018.036-.089 0-.054.018-.071l.071-.054 3-2.125q.036-.036.054-.036.036-.036.071-.036h.286q.018 0 .054.036.071.071.089.071l.125.054.071.071q.054.036.054.054.018 0 .125.125.036.071.125.161l.107.179q.018.071.018.161.036.071.036.196v.143q0 .125-.036.161l-.018.125q0 .036-.107.089-.054.107-.089.107l-3.339 1.554h-.071q-.036.036-.089.036l-.179-.089-.107-.071-.089-.036-.054-.125-.036-.018-.036-.071q-.018-.018-.054-.089t-.036-.089q-.036-.071-.036-.107l.018-.036q0-.054.018-.089z" fill="#000000"/></svg>